<svg width="10" height="9" viewBox="0 0 10 9" fill="none" xmlns="http://www.w3.org/2000/svg">
<path d="M1 4.8L0.658841 4.43447C0.557523 4.52904 0.5 4.66141 0.5 4.8C0.5 4.93859 0.557523 5.07096 0.658841 5.16553L1 4.8ZM4.42857 8L4.08741 8.36553C4.19358 8.46462 4.33759 8.51265 4.48199 8.49714C4.62639 8.48162 4.75691 8.40409 4.8396 8.2847L4.42857 8ZM9 1.4L9.41103 1.6847C9.55236 1.48066 9.52261 1.20383 9.34116 1.03447L9 1.4ZM8.57143 1L8.91259 0.634472C8.80535 0.534384 8.65957 0.486435 8.51386 0.503326C8.36814 0.520216 8.2372 0.600242 8.1557 0.722208L8.57143 1ZM4.42857 7.2L4.08741 7.56553C4.19465 7.66562 4.34043 7.71357 4.48614 7.69667C4.63186 7.67978 4.7628 7.59976 4.8443 7.47779L4.42857 7.2ZM1.42857 4.4L1.76973 4.03447C1.57763 3.85518 1.27952 3.85518 1.08741 4.03447L1.42857 4.4ZM0.658841 5.16553L4.08741 8.36553L4.76973 7.63447L1.34116 4.43447L0.658841 5.16553ZM4.8396 8.2847L9.41103 1.6847L8.58897 1.1153L4.01754 7.7153L4.8396 8.2847ZM9.34116 1.03447L8.91259 0.634472L8.23027 1.36553L8.65884 1.76553L9.34116 1.03447ZM8.1557 0.722208L4.01284 6.92221L4.8443 7.47779L8.98716 1.27779L8.1557 0.722208ZM4.76973 6.83447L1.76973 4.03447L1.08741 4.76553L4.08741 7.56553L4.76973 6.83447ZM1.08741 4.03447L0.658841 4.43447L1.34116 5.16553L1.76973 4.76553L1.08741 4.03447Z" fill="#4F4F4F"/>
</svg>
