<svg width="99" height="99" viewBox="0 0 99 99" fill="none" xmlns="http://www.w3.org/2000/svg">
<path d="M35.0628 64.7127C35.0628 60.6807 37.9985 57.2463 41.9883 56.6108C47.0062 55.8116 52.1194 55.8116 57.1373 56.6108C61.1271 57.2463 64.0628 60.6807 64.0628 64.7127V65.6054C64.0628 67.9634 62.1473 69.875 59.7845 69.875H39.3411C36.9783 69.875 35.0628 67.9634 35.0628 65.6054V64.7127Z" stroke="#F9F9F9" stroke-width="1.5"/>
<path d="M58.0211 37.3162C58.0211 41.9781 54.2342 45.7574 49.5628 45.7574C44.8914 45.7574 41.1045 41.9781 41.1045 37.3162C41.1045 32.6542 44.8914 28.875 49.5628 28.875C54.2342 28.875 58.0211 32.6542 58.0211 37.3162Z" stroke="#F9F9F9" stroke-width="1.5"/>
<path d="M86.625 28.875C86.625 19.7623 77.3909 12.375 66 12.375M12.375 66C12.375 77.3909 19.7623 86.625 28.875 86.625M28.875 12.375C19.7623 12.375 12.375 19.7623 12.375 28.875M66 86.625C77.3909 86.625 86.625 77.3909 86.625 66" stroke="#F9F9F9" stroke-width="1.5" stroke-linecap="round"/>
</svg>
